<?xml version="1.0" encoding="utf-8"?>
<!-- Generator: Adobe Illustrator 24.0.0, SVG Export Plug-In . SVG Version: 6.00 Build 0)  -->
<svg version="1.1" id="Ebene_3" xmlns="http://www.w3.org/2000/svg" xmlns:xlink="http://www.w3.org/1999/xlink" x="0px" y="0px"
	 width="841.9px" height="595.3px" viewBox="0 0 841.9 595.3" style="enable-background:new 0 0 841.9 595.3;" xml:space="preserve"
	>
<style type="text/css">
	.st0{display:none;fill:url(#SVGID_1_);}
	.st1{fill:#010101;}
	.st2{fill:url(#SVGID_2_);}
	.st3{fill:url(#SVGID_3_);}
	.st4{fill:url(#SVGID_4_);}
	.st5{fill:url(#SVGID_5_);}
	.st6{fill:url(#SVGID_6_);}
	.st7{fill:url(#SVGID_7_);}
	.st8{fill:#E23D3D;}
	.st9{fill:#F28131;}
	.st10{fill:#169AD4;}
	.st11{fill:#954094;}
	.st12{fill:#F7B732;}
	.st13{fill:#63B74D;}
</style>
<linearGradient id="SVGID_1_" gradientUnits="userSpaceOnUse" x1="420.9449" y1="496.063" x2="420.9449" y2="354.3307">
	<stop  offset="0.2" style="stop-color:#FFFFFF"/>
	<stop  offset="0.8" style="stop-color:#FFFFFF;stop-opacity:0"/>
</linearGradient>
<rect x="350.1" y="354.3" class="st0" width="141.7" height="141.7"/>
<g>
	<path class="st1" d="M559,285.4L559,285.4l-11.8-7.3c-0.1-1.1-0.2-2.3-0.3-3.4l10.1-9.4c1-1,1.5-2.4,1.2-3.7
		c-0.3-1.4-1.2-2.5-2.5-3l-12.9-4.8c-0.3-1.1-0.7-2.2-1-3.3l8.1-11.2c0.8-1.1,1-2.6,0.5-3.9c-0.5-1.3-1.7-2.2-3.1-2.4l-13.6-2.2
		c-0.5-1-1.1-2-1.6-3.1l5.7-12.6c0.6-1.3,0.5-2.8-0.3-3.9c-0.8-1.2-2.1-1.8-3.5-1.8l-13.8,0.5c-0.7-0.9-1.4-1.8-2.2-2.6l3.2-13.5
		c0.3-1.4-0.1-2.8-1.1-3.8c-1-1-2.4-1.4-3.8-1.1l-13.5,3.2c-0.9-0.7-1.8-1.5-2.7-2.2l0.5-13.8c0.1-1.4-0.6-2.7-1.8-3.5
		c-1.2-0.8-2.6-0.9-3.9-0.3l-12.6,5.7c-1-0.6-2-1.1-3.1-1.6l-2.2-13.6c-0.2-1.4-1.1-2.6-2.4-3.1c-1.3-0.5-2.8-0.4-3.9,0.5l-11.2,8.1
		c-1.1-0.4-2.2-0.7-3.3-1l-4.8-12.9c-0.5-1.3-1.6-2.3-3-2.6c-1.4-0.3-2.8,0.2-3.7,1.2l-9.4,10.1c-1.1-0.1-2.3-0.2-3.4-0.3l-7.3-11.8
		c-0.7-1.2-2-1.9-3.4-1.9c-1.4,0-2.7,0.7-3.4,1.9l-7.3,11.8c-1.1,0.1-2.3,0.2-3.4,0.3l-9.4-10.1c-1-1-2.4-1.5-3.7-1.2
		c-1.4,0.3-2.5,1.2-3,2.6l-4.8,12.9c-1.1,0.3-2.2,0.7-3.3,1l-11.2-8.1c-1.1-0.8-2.6-1-3.9-0.5c-1.3,0.5-2.2,1.7-2.4,3.1l-2.2,13.6
		c-1,0.5-2,1.1-3.1,1.6l-12.6-5.7c-1.3-0.6-2.8-0.5-3.9,0.3c-1.2,0.8-1.8,2.1-1.8,3.5l0.5,13.8c-0.9,0.7-1.8,1.4-2.7,2.2l-13.5-3.2
		c-1.4-0.3-2.8,0.1-3.8,1.1c-1,1-1.4,2.4-1.1,3.8l3.2,13.5c-0.7,0.9-1.5,1.8-2.2,2.6l-13.8-0.5c-1.4,0-2.7,0.6-3.5,1.8
		c-0.8,1.2-0.9,2.6-0.3,3.9l5.7,12.6c-0.6,1-1.1,2-1.6,3.1l-13.6,2.2c-1.4,0.2-2.5,1.1-3.1,2.4c-0.5,1.3-0.4,2.8,0.5,3.9l8.1,11.2
		c-0.4,1.1-0.7,2.2-1,3.3l-12.9,4.8c-1.3,0.5-2.3,1.6-2.5,3c-0.3,1.4,0.2,2.8,1.2,3.7l10.1,9.4c-0.1,1.1-0.2,2.3-0.3,3.4l-11.8,7.3
		c-1.2,0.7-1.9,2-1.9,3.4c0,1.4,0.7,2.7,1.9,3.4l11.8,7.3c0.1,1.1,0.2,2.3,0.3,3.4l-10.1,9.4c-1,1-1.5,2.4-1.2,3.7
		c0.3,1.4,1.2,2.5,2.5,3l12.9,4.8c0.3,1.1,0.7,2.2,1,3.3l-8.1,11.2c-0.8,1.1-1,2.6-0.5,3.9c0.5,1.3,1.7,2.2,3.1,2.4l10.3,1.7h102
		h18.3c0.9,0,1.6-0.2,1.6-1V318c0-0.9-0.6-1-1.6-1h-22.5v-18.8h21.3c2.4,0,12.9,0.7,16.3,14.1c1.1,4.1,3.4,17.5,4.9,21.8
		c1.1,3.4,4.6,9.2,9,12.3h82.4l10.3-1.7c1.4-0.2,2.6-1.1,3.1-2.4c0.5-1.3,0.4-2.8-0.5-3.9l-8.1-11.2c0.3-1.1,0.7-2.2,1-3.3l12.9-4.8
		c1.3-0.5,2.3-1.6,2.5-3c0.3-1.4-0.2-2.8-1.2-3.7l-10.1-9.4c0.1-1.1,0.2-2.3,0.3-3.4l11.8-7.3c1.2-0.7,1.9-2,1.9-3.4
		C560.9,287.4,560.2,286.1,559,285.4z M414.8,175.9c3.3-3.2,8.6-3.1,11.8,0.3c3.2,3.3,3,8.6-0.3,11.8c-3.3,3.2-8.6,3.1-11.8-0.3
		C411.3,184.3,411.4,179.1,414.8,175.9z M313.8,260.5c-1.9-4.2,0-9.1,4.2-11c4.2-1.9,9.1,0,11,4.2c1.9,4.2,0,9.1-4.2,11
		C320.5,266.6,315.6,264.7,313.8,260.5z M354.7,316h-32.2h-3.9v-38.8l0.6-0.3c0,0,0,0,0,0l10.5-4.6l0,0l7.4-3.3
		c3.8-1.7,5.6-6.2,3.9-10l-3.7-8.3h17.4V316z M429.8,270.6h-26.9v-19.3h29.4c1.8,0,12.6,2.1,12.6,10.1
		C444.9,268.1,436.6,270.6,429.8,270.6z M523.3,295.5H523h-10.5c-1.1,0-1.5,0.7-1.5,1.7v4.8c0,11.3-6.4,13.8-12,14.4
		c-5.3,0.6-11.3-2.2-12-5.5c-3.2-17.7-8.4-21.5-16.7-28c10.3-6.5,21-16.2,21-29.1c0-13.9-9.5-22.7-16.1-27c-9.1-6-19.2-7.2-22-7.2
		H344.7c14.7-16.4,34.7-28.1,57.2-32.3l12.8,13.4c2.9,3,7.7,3.1,10.7,0.2l14.3-13.7c30,5.6,55.4,24.3,70.1,49.9l-9.8,22.1
		c-1.7,3.8,0,8.3,3.9,10l18.9,8.4c0,0,0,0,0,0l0.5,0.2V295.5z M527.2,260.9c-1.9,4.2-6.8,6.1-11,4.2c-4.2-1.9-6.1-6.8-4.2-11
		c1.9-4.2,6.8-6.1,11-4.2C527.2,251.8,529.1,256.7,527.2,260.9z"/>
	<linearGradient id="SVGID_2_" gradientUnits="userSpaceOnUse" x1="402.8918" y1="346.4825" x2="402.8918" y2="151.4613">
		<stop  offset="0" style="stop-color:#E23E3D;stop-opacity:0.8"/>
		<stop  offset="0.8" style="stop-color:#E23E3D;stop-opacity:0"/>
	</linearGradient>
	<path class="st2" d="M414.9,317v29.5H407h-16.2V219.6h24.1v31.7h-12v19.3h12v27.7h-12V317v0H414.9z M390.9,190.1
		c3.6-1.1,7.3-2,11.1-2.8l12.8,13.4c0.1,0.1,0.1,0.1,0.2,0.1V188c-0.1-0.1-0.3-0.2-0.4-0.4c-3.2-3.3-3-8.6,0.3-11.8
		c0,0,0.1-0.1,0.2-0.1v-20.8l-4.7,7.6c-1.1,0.1-2.3,0.2-3.4,0.3l-9.4-10.1c-1-1-2.4-1.5-3.7-1.2c-1.2,0.2-2.2,1.1-2.8,2.2V190.1z"/>
	<linearGradient id="SVGID_3_" gradientUnits="userSpaceOnUse" x1="336.6508" y1="346.4825" x2="336.6508" y2="171.7554">
		<stop  offset="0" style="stop-color:#189AD3;stop-opacity:0.8"/>
		<stop  offset="0.8" style="stop-color:#189AD3;stop-opacity:0"/>
	</linearGradient>
	<path class="st3" d="M354.7,346.5h-36.1V316h3.9h32.2V346.5z M324.1,207.1c-0.7,0.9-1.5,1.8-2.2,2.6l-3.3-0.1v39.7c0,0,0,0,0,0
		c1.5-0.5,3.1-0.6,4.6-0.3c0,0,0,0,0.1,0c0.5,0.1,0.9,0.2,1.4,0.4c0.1,0,0.2,0.1,0.2,0.1c0.4,0.2,0.7,0.4,1.1,0.6
		c0.2,0.1,0.3,0.2,0.4,0.3c0.3,0.2,0.5,0.4,0.8,0.6c0.2,0.2,0.4,0.4,0.6,0.7c0.1,0.2,0.3,0.3,0.4,0.5c0.3,0.4,0.6,0.9,0.8,1.4
		c1.9,4.2,0,9.1-4.2,11c-0.5,0.2-1,0.4-1.6,0.5c-0.4,0.1-0.8,0.1-1.2,0.2c-0.1,0-0.2,0-0.3,0c-1,0-2.1-0.1-3-0.5v12.2l0.6-0.3
		c0,0,0,0,0,0l10.5-4.6l0,0l7.4-3.3c2.4-1.1,4-3.2,4.4-5.6c0.2-1,0.2-2-0.1-2.9c-0.1-0.5-0.3-1-0.5-1.5l-3.7-8.3l0,0v0h17.4v-31h-10
		c1.5-1.7,3-3.2,4.6-4.8c0.1-0.1,0.2-0.2,0.4-0.4c1.6-1.6,3.3-3.1,5-4.6c0,0,0,0,0,0v-34.3l-7.6-3.5c-1.3-0.6-2.8-0.5-3.9,0.3
		c-0.9,0.6-1.5,1.5-1.7,2.5c-0.1,0.3-0.1,0.7-0.1,1l0.2,6.9l0.2,6.9l0,0v0c-0.9,0.7-1.8,1.4-2.7,2.2l-13.5-3.2
		c-0.3-0.1-0.7-0.1-1-0.1c-1,0-2,0.4-2.8,1.2c-0.2,0.2-0.5,0.5-0.6,0.8c-0.3,0.6-0.5,1.3-0.6,1.9c0,0.3,0,0.7,0.1,1L324.1,207.1z"/>
	<linearGradient id="SVGID_4_" gradientUnits="userSpaceOnUse" x1="372.7852" y1="346.4825" x2="372.7852" y2="159.1938">
		<stop  offset="0" style="stop-color:#954195;stop-opacity:0.8"/>
		<stop  offset="0.8" style="stop-color:#954195;stop-opacity:0"/>
	</linearGradient>
	<path class="st4" d="M366.8,159.9c0.2-0.1,0.4-0.3,0.6-0.4c1.3-0.5,2.8-0.4,3.9,0.5l7.5,5.4v29.3c-4.2,1.9-8.2,4-12,6.4V159.9z
		 M366.8,346.5h12V219.6h-12V346.5z"/>
	<linearGradient id="SVGID_5_" gradientUnits="userSpaceOnUse" x1="493.2035" y1="346.4825" x2="493.2035" y2="159.1957">
		<stop  offset="0" style="stop-color:#63B64D;stop-opacity:0.8"/>
		<stop  offset="0.8" style="stop-color:#63B64D;stop-opacity:0"/>
	</linearGradient>
	<path class="st5" d="M523.3,346.5h-60.2V221.3c0.9,0.3,1.8,0.6,2.8,0.9c0.1,0,0.2,0.1,0.3,0.1c0.9,0.3,1.8,0.7,2.8,1.1
		c0.1,0.1,0.3,0.1,0.4,0.2c0.9,0.4,1.9,0.9,2.8,1.4c0.1,0.1,0.2,0.1,0.3,0.2c1,0.5,1.9,1.1,2.9,1.7c6.5,4.3,16.1,13.1,16.1,27
		c0,12.9-10.7,22.5-21,29.1c1,0.8,2,1.6,3,2.4c1.4,1.1,2.7,2.3,3.9,3.5c2,2,3.8,4.3,5.3,7.3c0.6,1.2,1.2,2.5,1.7,4
		c1.1,2.9,2,6.5,2.8,10.9c0.2,0.8,0.7,1.6,1.4,2.3c0.2,0.2,0.4,0.4,0.6,0.5c0.6,0.5,1.4,1,2.2,1.4c0.6,0.3,1.2,0.5,1.8,0.7
		c0.6,0.2,1.3,0.4,1.9,0.5c1.3,0.2,2.7,0.3,4,0.1c5.6-0.6,12-3.1,12-14.4v-4.8c0-0.3,0-0.5,0.1-0.7c0.2-0.6,0.6-1,1.4-1H523h0.3
		V346.5z M463.1,194.7C463.1,194.7,463.1,194.7,463.1,194.7c3.6,1.6,7.1,3.5,10.4,5.5c0.2,0.1,0.3,0.2,0.5,0.3
		c3.1,1.9,6.2,4,9.1,6.2c0.3,0.2,0.5,0.4,0.8,0.6c0.8,0.6,1.6,1.3,2.4,1.9c0.4,0.4,0.9,0.7,1.3,1.1c0.7,0.6,1.4,1.2,2.1,1.9
		c0.9,0.8,1.8,1.6,2.6,2.5c0.6,0.6,1.3,1.3,1.9,1.9c0.6,0.7,1.3,1.3,1.9,2c0.5,0.5,1,1,1.4,1.6c0.7,0.8,1.4,1.6,2.1,2.5
		c0.3,0.4,0.7,0.8,1,1.2c1,1.2,1.9,2.5,2.9,3.7c0.3,0.4,0.6,0.8,0.8,1.2c0.7,1,1.4,2,2.1,3c0.3,0.4,0.5,0.8,0.8,1.2
		c0.9,1.4,1.7,2.8,2.6,4.2l-9.8,22.1c-0.2,0.5-0.4,1-0.5,1.5c-0.8,3.4,1,7.1,4.3,8.6l18.9,8.4c0,0,0,0,0,0l0.5,0.2v-13l0,0
		c-0.5,0.3-1.1,0.5-1.6,0.6c0,0,0,0-0.1,0c-0.5,0.1-1,0.2-1.6,0.2c-0.1,0-0.2,0-0.2,0c-0.5,0-1,0-1.4-0.1c-0.1,0-0.2,0-0.4,0
		c-0.6-0.1-1.2-0.3-1.7-0.5c-2.1-0.9-3.6-2.6-4.4-4.6c-0.4-1-0.6-2.1-0.6-3.1c0-1.1,0.2-2.2,0.7-3.2c1.2-2.7,3.6-4.4,6.3-4.8
		c1.5-0.3,3.2-0.1,4.7,0.6c0.1,0,0.2,0.1,0.3,0.2v-40.5l-3.3,0.1l0,0h0c-0.7-0.9-1.4-1.8-2.2-2.6l3.2-13.5c0.3-1.4-0.1-2.8-1.1-3.8
		c-0.7-0.7-1.7-1.2-2.8-1.2c-0.3,0-0.7,0-1,0.1l-13.5,3.2c-0.9-0.7-1.8-1.5-2.7-2.2v0l0,0l0.2-6.9l0.2-6.9c0-0.8-0.2-1.6-0.6-2.3
		c-0.3-0.5-0.7-0.9-1.2-1.3c-0.3-0.2-0.6-0.3-0.9-0.5c-1-0.3-2-0.3-3,0.1l-12.6,5.7c-1-0.6-2-1.1-3.1-1.6l-2.2-13.6
		c-0.2-1-0.7-2-1.5-2.6c-0.3-0.2-0.6-0.4-0.9-0.5c-0.6-0.3-1.3-0.4-2-0.3c-0.7,0.1-1.3,0.3-1.9,0.7l-7.5,5.4V194.7z"/>
	<linearGradient id="SVGID_6_" gradientUnits="userSpaceOnUse" x1="420.9435" y1="346.4826" x2="420.9435" y2="148.85">
		<stop  offset="0" style="stop-color:#F28131;stop-opacity:0.8"/>
		<stop  offset="0.8" style="stop-color:#F28131;stop-opacity:0"/>
	</linearGradient>
	<path class="st6" d="M414.9,219.6h12v31.7h-12V219.6z M425.4,317h-10.5v29.5h10.5c0.9,0,1.6-0.2,1.6-1V318
		C427,317.2,426.3,317,425.4,317z M414.9,175.8c3.3-3,8.5-2.9,11.6,0.4c0.2,0.2,0.3,0.4,0.4,0.6v-21.8l-2.6-4.2
		c-0.7-1.2-2-1.9-3.4-1.9c-1.4,0-2.7,0.7-3.4,1.9l-2.6,4.2V175.8z M426.2,187.9c-3.2,3-8.1,3-11.3,0.1v12.9c2.9,2.9,7.6,3,10.6,0.1
		l1.5-1.4v-12.5C426.7,187.4,426.5,187.7,426.2,187.9z M414.9,270.6v27.7h9.3c0.6,0,1.5,0,2.7,0.3v-28H414.9z"/>
	<linearGradient id="SVGID_7_" gradientUnits="userSpaceOnUse" x1="438.9981" y1="343.4271" x2="438.9981" y2="151.4613">
		<stop  offset="0" style="stop-color:#F6B632;stop-opacity:0.8"/>
		<stop  offset="0.8" style="stop-color:#F6B632;stop-opacity:0"/>
	</linearGradient>
	<path class="st7" d="M451,219.6v123.8c-2.7-3-4.8-6.8-5.6-9.2c-1.6-4.3-3.9-17.7-4.9-21.8c-2.6-10.4-9.4-13.1-13.5-13.8v-28h2.8
		c6.8,0,15.1-2.4,15.1-9.1c0-8.1-10.8-10.1-12.6-10.1H427v-31.7H451z M427,176.7c2.4,3,2.4,7.3,0,10.4v12.5l12.8-12.3
		c3.8,0.7,7.6,1.6,11.2,2.8v-36.4c-0.6-1.1-1.6-1.9-2.8-2.1c-1.4-0.3-2.8,0.2-3.7,1.2l-9.4,10.1c-1.1-0.1-2.3-0.2-3.4-0.3l-4.7-7.6
		V176.7z"/>
	<g id="g853_8_" transform="matrix(0.04196843,0,0,0.04196843,79.324221,78.087349)">
		<polygon id="polygon835_8_" class="st8" points="7709.9,6953.5 7996.6,6953.5 7996.6,6666.7 7423.1,6666.7 7423.1,6953.5 
			7423.1,8100.6 7709.9,8100.6 		"/>
		<rect id="rect837_8_" x="7996.6" y="6952.8" class="st9" width="286.8" height="861.1"/>
		<polygon id="polygon839_8_" class="st10" points="5701,6666.7 5701,7813.9 5701,8100.6 5988.5,8100.6 6562,8100.6 6562,7813.9 
			5988.5,7813.9 5988.5,6666.7 		"/>
		<rect id="rect841_8_" x="6849.1" y="6665.8" class="st11" width="286.8" height="861.1"/>
		<rect id="rect843_8_" x="6849.1" y="7814.4" class="st11" width="286.8" height="286.8"/>
		<polygon id="polygon845_8_" class="st12" points="8283.4,7813.9 8283.4,8100.6 8570.2,8100.6 8857,8100.6 8857,7813.9 
			8857,6666.7 8570.2,6666.7 8570.2,7813.9 		"/>
		<polygon id="polygon847_8_" class="st13" points="10579.1,7240.3 10579.1,6666.7 10291.6,6666.7 9144.5,6666.7 9144.5,6953.5 
			10291.6,6953.5 10291.6,7240.3 		"/>
		<rect id="rect849_8_" x="9431.4" y="7240.4" class="st13" width="861.1" height="286.8"/>
		<polygon id="polygon851_8_" class="st13" points="9144.5,7527.1 9144.5,7813.9 9144.5,8100.6 9431.3,8100.6 10579.1,8100.6 
			10579.1,7813.9 9431.3,7813.9 9431.3,7527.1 		"/>
	</g>
</g>
</svg>
